<svg width="137" height="25" viewBox="0 0 137 25" fill="none" xmlns="http://www.w3.org/2000/svg">
<path d="M5.73047 2.69922C4.65234 3.14453 3.82422 3.80859 3.24609 4.69141C2.66797 5.57422 2.37891 6.65625 2.37891 7.9375C2.37891 8.4375 2.43359 8.83594 2.54297 9.13281C2.57422 9.23438 2.61328 9.32422 2.66016 9.40234C2.69141 9.45703 2.70703 9.51172 2.70703 9.56641C1.83984 9.56641 1.20703 9.39453 0.808594 9.05078C0.363281 8.67578 0.140625 8.07031 0.140625 7.23438C0.140625 6.71094 0.253906 6.19531 0.480469 5.6875C0.707031 5.17188 1.02734 4.67578 1.44141 4.19922C1.83203 3.74609 2.29688 3.32422 2.83594 2.93359C3.38281 2.53516 3.97266 2.19141 4.60547 1.90234C5.93359 1.30078 7.25391 1 8.56641 1C8.92578 1 9.24609 1.01562 9.52734 1.04688L5.70703 19H2.26172L5.73047 2.69922ZM23.5898 19.1406C22.5977 19.1406 21.8633 18.8594 21.3867 18.2969C20.9727 17.8125 20.7656 17.1914 20.7656 16.4336C20.7656 16.0742 20.8086 15.6562 20.8945 15.1797C20.9883 14.7031 21.125 14.0898 21.3047 13.3398C21.4844 12.5742 21.6172 11.9648 21.7031 11.5117C21.7969 11.0508 21.8438 10.6523 21.8438 10.3164C21.8438 9.49609 21.5547 9.08594 20.9766 9.08594C20.5703 9.08594 20.1953 9.30078 19.8516 9.73047C19.5625 10.0977 19.3125 10.6211 19.1016 11.3008L17.4727 19H14.0156L15.7734 10.7148C15.8203 10.5273 15.8438 10.3281 15.8438 10.1172C15.8438 9.79688 15.793 9.55078 15.6914 9.37891C15.5586 9.16797 15.3672 9.0625 15.1172 9.0625C14.6641 9.0625 14.2695 9.28125 13.9336 9.71875C13.6367 10.0938 13.3828 10.6211 13.1719 11.3008L11.543 19H8.08594L10.6289 7H14.0859L13.8281 8.24219C14.2969 7.71875 14.8086 7.34766 15.3633 7.12891C15.8008 6.96484 16.2656 6.88281 16.7578 6.88281C17.4297 6.88281 17.9648 7.03906 18.3633 7.35156C18.8086 7.70312 19.0938 8.23438 19.2188 8.94531C19.7344 8.14844 20.3281 7.58594 21 7.25781C21.4766 7.02344 21.9961 6.90625 22.5586 6.90625C23.3633 6.90625 24 7.11719 24.4688 7.53906C24.9688 8 25.2188 8.69141 25.2188 9.61328C25.2188 10.1367 25.1211 10.8594 24.9258 11.7812C24.8477 12.1641 24.7539 12.5508 24.6445 12.9414C24.4492 13.6914 24.2891 14.3828 24.1641 15.0156C24.1016 15.3438 24.0703 15.6094 24.0703 15.8125C24.0703 16.1328 24.1406 16.3828 24.2812 16.5625C24.4297 16.7344 24.6797 16.8203 25.0312 16.8203C25.5078 16.8203 25.9102 16.625 26.2383 16.2344C26.4883 15.9375 26.7578 15.4258 27.0469 14.6992H28.0547C27.4609 16.457 26.7109 17.6875 25.8047 18.3906C25.1641 18.8906 24.4258 19.1406 23.5898 19.1406ZM29.9297 19.1406C29.0156 19.1406 28.2773 18.8555 27.7148 18.2852C27.0586 17.6133 26.7305 16.6133 26.7305 15.2852C26.7305 14.7227 26.7891 14.1289 26.9062 13.5039C27.0156 12.8789 27.1797 12.2617 27.3984 11.6523C27.8984 10.2773 28.582 9.16797 29.4492 8.32422C30.4492 7.36328 31.6016 6.88281 32.9062 6.88281C33.5547 6.88281 34.0391 6.99609 34.3594 7.22266C34.6875 7.44141 34.8516 7.73438 34.8516 8.10156V8.27734L35.1094 7H38.5664L36.8438 15.1562C36.7734 15.3906 36.7383 15.6484 36.7383 15.9297C36.7383 16.6172 37.0664 16.9609 37.7227 16.9609C38.1602 16.9609 38.5586 16.7383 38.918 16.293C39.2227 15.918 39.4727 15.3867 39.668 14.6992H40.6758C40.2461 15.918 39.7266 16.8828 39.1172 17.5938C38.6016 18.1797 38.0195 18.6016 37.3711 18.8594C36.8945 19.0469 36.3906 19.1406 35.8594 19.1406C35.1797 19.1406 34.6367 18.957 34.2305 18.5898C33.832 18.2148 33.5898 17.6641 33.5039 16.9375C33.0508 17.5781 32.5742 18.0781 32.0742 18.4375C31.4336 18.9062 30.7188 19.1406 29.9297 19.1406ZM31.4883 16.8203C31.668 16.8203 31.8555 16.7734 32.0508 16.6797C32.2539 16.5859 32.4492 16.4531 32.6367 16.2812C33.0586 15.875 33.3398 15.3477 33.4805 14.6992L34.6289 9.28516C34.6289 9.20703 34.6094 9.11719 34.5703 9.01562C34.5391 8.90625 34.4922 8.80469 34.4297 8.71094C34.2422 8.48438 33.9805 8.37109 33.6445 8.37109C33.3242 8.37109 33.0117 8.47656 32.707 8.6875C32.4102 8.89844 32.1289 9.19141 31.8633 9.56641C31.3945 10.2461 31.0078 11.1328 30.7031 12.2266C30.5625 12.7109 30.457 13.1914 30.3867 13.668C30.3164 14.1367 30.2812 14.5625 30.2812 14.9453C30.2812 15.7422 30.4297 16.2812 30.7266 16.5625C30.8281 16.6719 30.9414 16.7422 31.0664 16.7734C31.1914 16.8047 31.332 16.8203 31.4883 16.8203ZM43.9219 25C43.5469 25 43.1953 24.9492 42.8672 24.8477C42.5469 24.7539 42.2695 24.6094 42.0352 24.4141C41.7852 24.2188 41.5898 23.9727 41.4492 23.6758C41.3086 23.3867 41.2383 23.0508 41.2383 22.668C41.2383 21.7617 41.6641 20.9844 42.5156 20.3359C43.1562 19.8594 44.0352 19.4453 45.1523 19.0938L45.4453 17.8281C44.625 18.7031 43.6641 19.1406 42.5625 19.1406C41.6484 19.1406 40.9102 18.8555 40.3477 18.2852C39.6914 17.6133 39.3633 16.6133 39.3633 15.2852C39.3633 14.7227 39.4219 14.1289 39.5391 13.5039C39.6484 12.8789 39.8125 12.2617 40.0312 11.6523C40.5312 10.2773 41.2148 9.16797 42.082 8.32422C43.082 7.36328 44.2344 6.88281 45.5391 6.88281C46.1875 6.88281 46.6719 6.99609 46.9922 7.22266C47.3203 7.44141 47.4844 7.73438 47.4844 8.10156V8.24219L47.7422 7H51.1992L48.8203 18.1328C49.5781 17.8828 50.1836 17.5078 50.6367 17.0078C51.1289 16.4688 51.5312 15.6992 51.8438 14.6992H52.8516C52.4219 16.1211 51.7812 17.2188 50.9297 17.9922C50.3047 18.5547 49.5312 18.9531 48.6094 19.1875L48.2461 20.9219C47.9414 22.4531 47.332 23.5625 46.418 24.25C45.7539 24.75 44.9219 25 43.9219 25ZM44.1211 16.8203C44.4648 16.8203 44.8281 16.6602 45.2109 16.3398C45.625 15.9805 45.9023 15.5156 46.043 14.9453L47.2617 9.26172C47.2617 9.18359 47.2422 9.09375 47.2031 8.99219C47.1719 8.89062 47.125 8.79688 47.0625 8.71094C46.875 8.48438 46.6133 8.37109 46.2773 8.37109C45.957 8.37109 45.6445 8.47656 45.3398 8.6875C45.043 8.89844 44.7617 9.19141 44.4961 9.56641C44.0273 10.2461 43.6406 11.1328 43.3359 12.2266C43.1953 12.7109 43.0898 13.1914 43.0195 13.668C42.9492 14.1367 42.9141 14.5625 42.9141 14.9453C42.9141 15.7422 43.0625 16.2812 43.3594 16.5625C43.4609 16.6719 43.5742 16.7422 43.6992 16.7734C43.8242 16.8047 43.9648 16.8203 44.1211 16.8203ZM43.3711 23.125C43.6211 23.125 43.8789 22.9492 44.1445 22.5977C44.4102 22.2539 44.6172 21.7188 44.7656 20.9922L44.9062 20.3008C44.1797 20.5742 43.6367 20.8516 43.2773 21.1328C42.8008 21.4922 42.5625 21.8945 42.5625 22.3398C42.5625 22.5508 42.6289 22.7266 42.7617 22.8672C42.9102 23.0391 43.1133 23.125 43.3711 23.125ZM55.2773 19.1406C54.0977 19.1406 53.1875 18.8438 52.5469 18.25C51.8672 17.6172 51.5273 16.6445 51.5273 15.332C51.5273 14.8398 51.5781 14.293 51.6797 13.6914C51.7734 13.0898 51.918 12.4883 52.1133 11.8867C52.332 11.2148 52.6094 10.5781 52.9453 9.97656C53.2891 9.375 53.6875 8.84375 54.1406 8.38281C55.1875 7.32031 56.4766 6.78906 58.0078 6.78906C58.9844 6.78906 59.6953 7.02344 60.1406 7.49219C60.4844 7.85938 60.6562 8.39062 60.6562 9.08594C60.6562 9.76562 60.5078 10.4062 60.2109 11.0078C59.9141 11.6016 59.5039 12.1289 58.9805 12.5898C58.457 13.043 57.8633 13.4062 57.1992 13.6797C56.5352 13.9453 55.8477 14.1016 55.1367 14.1484C55.0977 14.5547 55.0781 14.875 55.0781 15.1094C55.0781 15.8906 55.2266 16.4297 55.5234 16.7266C55.7812 16.9922 56.2109 17.125 56.8125 17.125C57.6797 17.125 58.4727 16.8906 59.1914 16.4219C59.4961 16.2266 59.7891 15.9961 60.0703 15.7305C60.3516 15.457 60.6797 15.1133 61.0547 14.6992H61.875C61.1172 15.9805 60.2461 17 59.2617 17.7578C58.0508 18.6797 56.7227 19.1406 55.2773 19.1406ZM55.3242 13C55.7695 12.9688 56.2031 12.8398 56.625 12.6133C57.0469 12.3867 57.4219 12.0898 57.75 11.7227C58.0781 11.3477 58.3359 10.9297 58.5234 10.4688C58.7109 10 58.8047 9.52344 58.8047 9.03906C58.8047 8.71875 58.7578 8.47656 58.6641 8.3125C58.5781 8.14062 58.4258 8.05469 58.207 8.05469C57.918 8.05469 57.625 8.19531 57.3281 8.47656C57.0391 8.75781 56.7578 9.14453 56.4844 9.63672C56.2344 10.0977 56.0078 10.6211 55.8047 11.207C55.6016 11.793 55.4414 12.3906 55.3242 13ZM71.8008 23.9688C71.2227 23.9688 70.6953 23.8906 70.2188 23.7344C69.7422 23.5781 69.332 23.3555 68.9883 23.0664C68.6445 22.7773 68.3789 22.4297 68.1914 22.0234C68.0039 21.6172 67.9102 21.1758 67.9102 20.6992C67.9102 20.2383 67.9922 19.8047 68.1562 19.3984C68.3203 19 68.5508 18.6445 68.8477 18.332C69.1367 18.0273 69.4805 17.793 69.8789 17.6289C70.2773 17.457 70.6992 17.3711 71.1445 17.3711C71.7617 17.3711 72.2539 17.5195 72.6211 17.8164C72.9961 18.1133 73.1836 18.5156 73.1836 19.0234C73.1836 19.4062 73.0977 19.7109 72.9258 19.9375C72.7773 19.7422 72.5781 19.5898 72.3281 19.4805C72.0859 19.3711 71.8281 19.3164 71.5547 19.3164C71.0625 19.3164 70.6719 19.4727 70.3828 19.7852C70.0781 20.1055 69.9258 20.5234 69.9258 21.0391C69.9258 21.5469 70.0742 21.9609 70.3711 22.2812C70.6602 22.6094 71.0312 22.7734 71.4844 22.7734C72.0391 22.7734 72.5156 22.5234 72.9141 22.0234C73.3125 21.5312 73.6211 20.7969 73.8398 19.8203L75.0352 14.5117H74.9414C74.4961 15.1211 73.9648 15.5859 73.3477 15.9062C72.7383 16.2266 72.0703 16.3867 71.3438 16.3867C70.6406 16.3867 70.0039 16.2461 69.4336 15.9648C68.8633 15.6758 68.375 15.2656 67.9688 14.7344C67.5625 14.2031 67.25 13.5625 67.0312 12.8125C66.8125 12.0625 66.7031 11.2305 66.7031 10.3164C66.7031 9.43359 66.8008 8.58594 66.9961 7.77344C67.1992 6.95312 67.4922 6.1875 67.875 5.47656C68.6406 4.03906 69.6836 2.91406 71.0039 2.10156C72.3633 1.25781 73.8516 0.835938 75.4688 0.835938C76.1406 0.835938 76.75 0.914063 77.2969 1.07031C77.8516 1.21875 78.3203 1.43359 78.7031 1.71484C79.0859 2.00391 79.3789 2.35547 79.582 2.76953C79.7852 3.17578 79.8867 3.63281 79.8867 4.14062C79.8867 4.82031 79.7188 5.37109 79.3828 5.79297C79.2188 5.99609 79.0195 6.15234 78.7852 6.26172C78.5586 6.37109 78.3164 6.42578 78.0586 6.42578C77.7617 6.42578 77.4805 6.36328 77.2148 6.23828C76.9492 6.10547 76.7266 5.91797 76.5469 5.67578C76.8281 5.48828 77.0703 5.17969 77.2734 4.75C77.4766 4.32031 77.5781 3.89453 77.5781 3.47266C77.5781 2.98828 77.4375 2.61719 77.1562 2.35938C76.8828 2.09375 76.4883 1.96094 75.9727 1.96094C75.5039 1.96094 75.0391 2.07031 74.5781 2.28906C74.125 2.50781 73.6875 2.81641 73.2656 3.21484C72.8516 3.60547 72.4688 4.07422 72.1172 4.62109C71.7656 5.16016 71.4648 5.74609 71.2148 6.37891C70.6758 7.71484 70.4062 9.12109 70.4062 10.5977C70.4062 11.8086 70.5938 12.7305 70.9688 13.3633C71.3516 13.9883 71.9062 14.3008 72.6328 14.3008C73.5078 14.3008 74.2695 13.8516 74.918 12.9531C75.5742 12.0469 76.1094 10.7109 76.5234 8.94531L79.3594 8.96875L77.6016 17.0312C77.0859 19.4062 76.3633 21.1602 75.4336 22.293C74.5039 23.4102 73.293 23.9688 71.8008 23.9688ZM83.0156 19.1406C82.1016 19.1406 81.3633 18.8555 80.8008 18.2852C80.1445 17.6133 79.8164 16.6133 79.8164 15.2852C79.8164 14.7227 79.875 14.1289 79.9922 13.5039C80.1016 12.8789 80.2656 12.2617 80.4844 11.6523C80.9844 10.2773 81.668 9.16797 82.5352 8.32422C83.5352 7.36328 84.6875 6.88281 85.9922 6.88281C86.6406 6.88281 87.125 6.99609 87.4453 7.22266C87.7734 7.44141 87.9375 7.73438 87.9375 8.10156V8.27734L88.1953 7H91.6523L89.9297 15.1562C89.8594 15.3906 89.8242 15.6484 89.8242 15.9297C89.8242 16.6172 90.1523 16.9609 90.8086 16.9609C91.2461 16.9609 91.6445 16.7383 92.0039 16.293C92.3086 15.918 92.5586 15.3867 92.7539 14.6992H93.7617C93.332 15.918 92.8125 16.8828 92.2031 17.5938C91.6875 18.1797 91.1055 18.6016 90.457 18.8594C89.9805 19.0469 89.4766 19.1406 88.9453 19.1406C88.2656 19.1406 87.7227 18.957 87.3164 18.5898C86.918 18.2148 86.6758 17.6641 86.5898 16.9375C86.1367 17.5781 85.6602 18.0781 85.1602 18.4375C84.5195 18.9062 83.8047 19.1406 83.0156 19.1406ZM84.5742 16.8203C84.7539 16.8203 84.9414 16.7734 85.1367 16.6797C85.3398 16.5859 85.5352 16.4531 85.7227 16.2812C86.1445 15.875 86.4258 15.3477 86.5664 14.6992L87.7148 9.28516C87.7148 9.20703 87.6953 9.11719 87.6562 9.01562C87.625 8.90625 87.5781 8.80469 87.5156 8.71094C87.3281 8.48438 87.0664 8.37109 86.7305 8.37109C86.4102 8.37109 86.0977 8.47656 85.793 8.6875C85.4961 8.89844 85.2148 9.19141 84.9492 9.56641C84.4805 10.2461 84.0938 11.1328 83.7891 12.2266C83.6484 12.7109 83.543 13.1914 83.4727 13.668C83.4023 14.1367 83.3672 14.5625 83.3672 14.9453C83.3672 15.7422 83.5156 16.2812 83.8125 16.5625C83.9141 16.6719 84.0273 16.7422 84.1523 16.7734C84.2773 16.8047 84.418 16.8203 84.5742 16.8203ZM95.1445 19.1406C94.3789 19.1406 93.7734 18.9141 93.3281 18.4609C92.8281 17.9609 92.5781 17.2305 92.5781 16.2695C92.5781 15.8164 92.6406 15.293 92.7656 14.6992L95.332 2.67578L98.8828 2.19531L96.1289 15.1562C96.0664 15.3594 96.0352 15.6172 96.0352 15.9297C96.0352 16.2578 96.1094 16.4883 96.2578 16.6211C96.4141 16.7539 96.6641 16.8203 97.0078 16.8203C97.2422 16.8203 97.4688 16.7695 97.6875 16.668C97.9141 16.5586 98.1211 16.4102 98.3086 16.2227C98.6914 15.8398 98.9805 15.332 99.1758 14.6992H100.184C99.7539 15.9102 99.2148 16.875 98.5664 17.5938C98.0195 18.1797 97.4023 18.6016 96.7148 18.8594C96.2148 19.0469 95.6914 19.1406 95.1445 19.1406ZM101.566 19.1406C100.801 19.1406 100.195 18.9141 99.75 18.4609C99.25 17.9609 99 17.2305 99 16.2695C99 15.8164 99.0625 15.293 99.1875 14.6992L101.754 2.67578L105.305 2.19531L102.551 15.1562C102.488 15.3594 102.457 15.6172 102.457 15.9297C102.457 16.2578 102.531 16.4883 102.68 16.6211C102.836 16.7539 103.086 16.8203 103.43 16.8203C103.664 16.8203 103.891 16.7695 104.109 16.668C104.336 16.5586 104.543 16.4102 104.73 16.2227C105.113 15.8398 105.402 15.332 105.598 14.6992H106.605C106.176 15.9102 105.637 16.875 104.988 17.5938C104.441 18.1797 103.824 18.6016 103.137 18.8594C102.637 19.0469 102.113 19.1406 101.566 19.1406ZM109.043 19.1406C107.863 19.1406 106.953 18.8438 106.312 18.25C105.633 17.6172 105.293 16.6445 105.293 15.332C105.293 14.8398 105.344 14.293 105.445 13.6914C105.539 13.0898 105.684 12.4883 105.879 11.8867C106.098 11.2148 106.375 10.5781 106.711 9.97656C107.055 9.375 107.453 8.84375 107.906 8.38281C108.953 7.32031 110.242 6.78906 111.773 6.78906C112.75 6.78906 113.461 7.02344 113.906 7.49219C114.25 7.85938 114.422 8.39062 114.422 9.08594C114.422 9.76562 114.273 10.4062 113.977 11.0078C113.68 11.6016 113.27 12.1289 112.746 12.5898C112.223 13.043 111.629 13.4062 110.965 13.6797C110.301 13.9453 109.613 14.1016 108.902 14.1484C108.863 14.5547 108.844 14.875 108.844 15.1094C108.844 15.8906 108.992 16.4297 109.289 16.7266C109.547 16.9922 109.977 17.125 110.578 17.125C111.445 17.125 112.238 16.8906 112.957 16.4219C113.262 16.2266 113.555 15.9961 113.836 15.7305C114.117 15.457 114.445 15.1133 114.82 14.6992H115.641C114.883 15.9805 114.012 17 113.027 17.7578C111.816 18.6797 110.488 19.1406 109.043 19.1406ZM109.09 13C109.535 12.9688 109.969 12.8398 110.391 12.6133C110.812 12.3867 111.188 12.0898 111.516 11.7227C111.844 11.3477 112.102 10.9297 112.289 10.4688C112.477 10 112.57 9.52344 112.57 9.03906C112.57 8.71875 112.523 8.47656 112.43 8.3125C112.344 8.14062 112.191 8.05469 111.973 8.05469C111.684 8.05469 111.391 8.19531 111.094 8.47656C110.805 8.75781 110.523 9.14453 110.25 9.63672C110 10.0977 109.773 10.6211 109.57 11.207C109.367 11.793 109.207 12.3906 109.09 13ZM116.449 7H119.906L119.602 8.48828C120.148 8.00391 120.594 7.66016 120.938 7.45703C121.469 7.15234 121.988 7 122.496 7C123.012 7 123.426 7.18359 123.738 7.55078C123.879 7.71484 123.984 7.90625 124.055 8.125C124.125 8.33594 124.16 8.5625 124.16 8.80469C124.16 9.02344 124.125 9.23438 124.055 9.4375C123.984 9.64062 123.879 9.82422 123.738 9.98828C123.582 10.1602 123.391 10.2969 123.164 10.3984C122.945 10.5 122.699 10.5508 122.426 10.5508C122.215 10.5508 122.047 10.5156 121.922 10.4453C121.797 10.375 121.699 10.2734 121.629 10.1406C121.566 10.0078 121.523 9.87891 121.5 9.75391C121.43 9.41797 121.359 9.19531 121.289 9.08594C121.234 9.00781 121.148 8.96875 121.031 8.96875C120.695 8.96875 120.41 9.03906 120.176 9.17969C119.941 9.32031 119.645 9.55469 119.285 9.88281L117.363 19H113.906L116.449 7ZM127.582 25C127.207 25 126.855 24.9492 126.527 24.8477C126.207 24.7539 125.93 24.6094 125.695 24.4141C125.445 24.2188 125.25 23.9727 125.109 23.6758C124.969 23.3867 124.898 23.0508 124.898 22.668C124.898 21.7617 125.324 20.9844 126.176 20.3359C126.816 19.8594 127.695 19.4453 128.812 19.0938L129.105 17.8047C128.637 18.3203 128.129 18.6836 127.582 18.8945C127.16 19.0586 126.707 19.1406 126.223 19.1406C125.457 19.1406 124.852 18.9141 124.406 18.4609C123.906 17.9609 123.656 17.2305 123.656 16.2695C123.656 15.8164 123.719 15.293 123.844 14.6992L125.473 7H128.93L127.207 15.1562C127.16 15.3516 127.137 15.5547 127.137 15.7656C127.137 16.0703 127.188 16.3125 127.289 16.4922C127.406 16.7109 127.594 16.8203 127.852 16.8203C128.273 16.8203 128.652 16.6328 128.988 16.2578C129.277 15.9375 129.523 15.4688 129.727 14.8516L131.402 7H134.859L132.48 18.1328C133.238 17.8828 133.844 17.5078 134.297 17.0078C134.789 16.4688 135.191 15.6992 135.504 14.6992H136.512C136.082 16.1211 135.441 17.2188 134.59 17.9922C133.965 18.5547 133.191 18.9531 132.27 19.1875L131.906 20.9219C131.602 22.4531 130.992 23.5625 130.078 24.25C129.414 24.75 128.582 25 127.582 25ZM127.031 23.125C127.273 23.125 127.531 22.9492 127.805 22.5977C128.07 22.2539 128.277 21.7188 128.426 20.9922L128.566 20.3008C127.84 20.5742 127.297 20.8516 126.938 21.1328C126.461 21.4922 126.223 21.8945 126.223 22.3398C126.223 22.5508 126.289 22.7266 126.422 22.8672C126.57 23.0391 126.773 23.125 127.031 23.125Z" fill="#333333"/>
</svg>
